<!DOCTYPE svg PUBLIC "-//W3C//DTD SVG 1.1//EN" "http://www.w3.org/Graphics/SVG/1.1/DTD/svg11.dtd">

<!-- Uploaded to: SVG Repo, www.svgrepo.com, Transformed by: SVG Repo Mixer Tools -->
<svg fill="#ffffff" width="182px" height="182px" viewBox="0 0 32.00 32.00" id="icon" xmlns="http://www.w3.org/2000/svg"
    stroke="#ffffff" stroke-width="0.00032">

    <g id="SVGRepo_bgCarrier" stroke-width="0" />

    <g id="SVGRepo_tracerCarrier" stroke-linecap="round" stroke-linejoin="round" />

    <g id="SVGRepo_iconCarrier">

        <defs>

            <style>
                .cls-1 {
                    fill: none;
                }
            </style>

        </defs>

        <title>compare</title>

        <path
            d="M28,6H18V4a2,2,0,0,0-2-2H4A2,2,0,0,0,2,4V24a2,2,0,0,0,2,2H14v2a2,2,0,0,0,2,2H28a2,2,0,0,0,2-2V8A2,2,0,0,0,28,6ZM4,15h6.17L7.59,17.59,9,19l5-5L9,9,7.59,10.41,10.17,13H4V4H16V24H4ZM16,28V26a2,2,0,0,0,2-2V8H28v9H21.83l2.58-2.59L23,13l-5,5,5,5,1.41-1.41L21.83,19H28v9Z"
            transform="translate(0)" />

        <rect id="_Transparent_Rectangle_" data-name="&lt;Transparent Rectangle&gt;" class="cls-1" width="32"
            height="32" />

    </g>

</svg>